Coordinates
version=1
nRows=13
nColumns=36
inDegrees=yes

Units are S.I. units (second, meters, Newtons, ...)
If the header above contains a line with 'inDegrees', this indicates whether rotational values are in degrees (yes) or radians (no).

endheader
time	pelvis_tilt	pelvis_list	pelvis_rotation	pelvis_tx	pelvis_ty	pelvis_tz	hip_flexion_r	hip_adduction_r	hip_rotation_r	knee_angle_r	knee_angle_r_beta	ankle_angle_r	subtalar_angle_r	mtp_angle_r	hip_flexion_l	hip_adduction_l	hip_rotation_l	knee_angle_l	knee_angle_l_beta	ankle_angle_l	subtalar_angle_l	mtp_angle_l	lumbar_extension	lumbar_bending	lumbar_rotation	arm_flex_r	arm_add_r	arm_rot_r	elbow_flex_r	pro_sup_r	arm_flex_l	arm_add_l	arm_rot_l	elbow_flex_l	pro_sup_l
      3.92916670	    -14.94991628	      2.18144108	      2.09690227	      0.25673098	      0.91608073	     -0.09852922	     33.19180332	    -13.67992602	     -5.30252773	     38.13941858	      0.66565843	     12.52140730	    -22.58477493	     -7.49999987	     35.77101320	     -2.69078573	      0.09069321	     39.56789341	      0.69059002	     10.05693636	    -14.33630800	     -7.49999987	    -13.41520642	      2.76635290	      1.02390711	      2.69166762	     -9.00117047	      7.66966201	     53.81779223	     87.27991809	      4.91048284	    -14.38308921	     26.49091857	    101.15469955	     87.45005140
      3.93333330	    -15.06305403	      2.15873548	      2.09080636	      0.26035704	      0.91339417	     -0.09416797	     32.82282339	    -13.50336672	     -5.33854810	     37.57065205	      0.65573158	     12.56349158	    -22.74546270	     -7.49999987	     35.41361801	     -2.80980405	      0.17748508	     38.96053454	      0.67998961	     10.09226940	    -14.04793380	     -7.49999987	    -12.41524719	      2.81945226	      1.17662269	      1.89049138	     -9.02335853	      7.56119956	     52.58796845	     87.31785079	      4.45358176	    -14.56461806	     26.51694116	    101.06535183	     87.88606137
      3.93750000	    -15.06574472	      2.11436855	      2.03551272	      0.26100688	      0.92341306	     -0.09437102	     32.11894153	    -13.22382048	     -5.54663582	     36.40632315	      0.63541021	     12.13286060	    -22.60268943	     -7.49999987	     34.75662272	     -2.93245474	      0.16523056	     37.79819255	      0.65970291	      9.75925199	    -13.35991447	     -7.49999987	    -11.85448850	      2.81996207	      1.35429142	      1.32309503	     -9.14827744	      7.55817793	     51.27870473	     85.25620906	      4.24096417	    -14.73714432	     26.75063066	    100.97395271	     86.62848980
      3.94166670	    -14.84029290	      1.97031736	      2.34063758	      0.26091301	      0.93154462	     -0.09504357	     30.95285125	    -13.06910731	     -6.25306896	     34.90143056	      0.60914488	     11.41948066	    -22.33543122	     -7.49999987	     33.98220078	     -3.07603953	      0.17002886	     36.58334642	      0.63849985	      8.92643538	    -12.96943363	     -7.49999987	    -11.78816518	      3.04727528	      1.13975446	      1.08061043	     -9.19581996	      7.36482212	     50.11816426	     85.39844270	      4.21046521	    -14.83219882	     26.68414843	    100.77412485	     87.12019254
      3.94583330	    -14.52472400	      1.81035950	      2.60600084	      0.26215843	      0.93437510	     -0.09580286	     29.71427334	    -12.79257414	     -6.47462336	     33.26504890	      0.58058463	     10.39652170	    -22.43954640	     -7.49999987	     32.96098988	     -3.08266226	      0.28797229	     35.22600171	      0.61480971	      8.17285540	    -12.98136599	     -7.49999987	    -11.97741232	      3.31860992	      0.92417087	      1.13066999	     -9.20341966	      7.11806749	     48.48629388	     85.56405797	      4.40975374	    -15.01518598	     26.84651012	    100.59940877	     87.64407369
      3.95000000	    -14.28642567	      1.67181250	      2.58557753	      0.26993550	      0.93053292	     -0.09591014	     28.78539919	    -12.54033509	     -6.47938589	     32.39734597	      0.56544036	      9.88952298	    -22.60137848	     -7.49999987	     32.07667546	     -3.25036444	      0.16310113	     34.55435100	      0.60308720	      7.98649353	    -13.02267972	     -7.49999987	    -11.75432072	      3.49976146	      0.84113879	      0.82744133	     -9.27751640	      6.98367707	     47.29929262	     86.03565780	      4.14369553	    -15.12025393	     26.91427438	    100.46429541	     88.38818429
      3.95416670	    -13.94411780	      1.55474070	      2.48796368	      0.27016823	      0.93140788	     -0.09601485	     27.86598621	    -12.24130586	     -6.24295158	     31.64657190	      0.55233688	      9.28061758	    -23.42240386	     -7.49999987	     31.30126497	     -3.31865418	      0.30604763	     34.13000196	      0.59568091	      7.95929049	    -13.28807145	     -7.49999987	    -11.70071240	      3.64328237	      0.90777793	      0.79063659	     -9.35361114	      6.67574673	     45.70232103	     85.98807847	      4.09242912	    -15.25717739	     27.15226711	    100.16452956	     88.81534211
      3.95833330	    -13.65728804	      1.33841768	      2.41885491	      0.27379745	      0.94037062	     -0.09185951	     26.42851073	    -11.60336160	     -6.19492282	     29.81956872	      0.52044966	      8.72037214	    -23.25085326	     -7.49999987	     30.31378152	     -3.68505045	      0.30256484	     33.23362166	      0.58003612	      7.69210096	    -13.08535820	     -7.49999987	    -11.64692566	      3.68596619	      0.53163339	      1.02909321	     -9.09665057	      6.92437174	     43.99615826	     86.68476533	      3.71644455	    -15.62654088	     26.75818499	     99.72907435	     92.63082019
      3.96250000	    -13.30057747	      1.02447032	      2.43068539	      0.27812922	      0.93771130	     -0.08774816	     25.08824724	    -10.83048597	     -6.15904296	     28.54057805	      0.49812706	      8.47742613	    -23.68212690	     -7.49999987	     29.47389720	     -4.24861077	      0.31145584	     32.71821449	      0.57104057	      7.68092959	    -12.64734983	     -7.49999987	    -11.58487357	      3.71754654	      0.70838967	      0.42915314	     -8.68775626	      6.79396579	     43.28957650	     84.91237587	      3.76906407	    -16.38619441	     27.66365540	     99.67734877	     90.35843944
      3.96666670	    -13.04587628	      0.66659446	      2.41693299	      0.27724388	      0.94053207	     -0.08814178	     23.99727127	    -10.08042417	     -6.07891941	     27.18195961	      0.47441469	      8.33440825	    -23.85421751	     -7.49999987	     28.95864781	     -4.75375970	      0.35658334	     32.35451644	      0.56469284	      7.51899621	    -12.48317943	     -7.49999987	    -11.47079418	      3.89792702	      0.64923673	      0.30735030	     -8.41181994	      6.96228094	     42.45994149	     85.05044489	      3.85369027	    -17.09851270	     28.14263216	     99.34097239	     90.70899153
      3.97083330	    -12.57588000	      0.44064534	      2.36707519	      0.27779355	      0.94398051	     -0.08870157	     22.76527389	     -9.53700958	     -5.89323503	     25.85059937	      0.45117807	      7.97303409	    -24.18000426	     -7.49999987	     28.04772975	     -5.13540318	      0.24393261	     31.59398049	      0.55141898	      7.42760030	    -12.03782164	     -7.49999987	    -11.74042054	      4.01283431	      0.75236375	      0.34005264	     -8.27476487	      7.13718082	     41.36906520	     84.88988100	      4.20592491	    -17.84427233	     29.04228337	     99.51849714	     90.66340894
      3.97500000	    -12.08159709	      0.13350900	      2.25527023	      0.28098615	      0.94666414	     -0.08478959	     21.59743096	     -8.83804488	     -5.69616706	     24.76615713	      0.43225098	      7.56515686	    -24.55042113	     -7.49999987	     27.04810993	     -5.75443366	     -0.16316261	     30.85108359	      0.53845299	      7.37434158	    -11.52883107	     -7.49999987	    -11.99130805	      4.10148843	      0.86184488	      0.39296411	     -7.94889199	      7.34480267	     40.34321827	     85.28155779	      4.58995028	    -18.75328048	     29.83453256	     99.49855423	     91.42265253
      3.97916670	    -11.75810665	     -0.15617101	      2.26318744	      0.28124968	      0.94695770	     -0.08522180	     20.67562355	     -8.23932311	     -5.38202839	     23.81231467	      0.41560329	      6.93056338	    -25.16852710	     -7.49999987	     26.30333855	     -6.13096498	     -0.24862153	     30.12623946	      0.52580207	      7.14338544	    -11.51762225	     -7.49999987	    -12.03182429	      4.26532805	      1.00155797	      0.26530580	     -7.88012126	      7.44287261	     39.95544401	     84.76045068	      5.07647877	    -19.54164060	     30.82955128	     99.92877844	     91.13274894
